<svg width="20" height="20" viewBox="0 0 20 20" fill="none" xmlns="http://www.w3.org/2000/svg">
<path d="M19.8866 18.6821C18.4236 16.1138 16.169 14.2721 13.5379 13.3991C14.8394 12.6124 15.8506 11.4136 16.4161 9.9868C16.9817 8.56003 17.0704 6.98418 16.6686 5.50126C16.2668 4.01834 15.3968 2.71034 14.1921 1.77814C12.9874 0.845933 11.5146 0.341064 10 0.341064C8.48537 0.341064 7.01262 0.845933 5.80792 1.77814C4.60321 2.71034 3.73316 4.01834 3.33138 5.50126C2.9296 6.98418 3.0183 8.56003 3.58387 9.9868C4.14944 11.4136 5.1606 12.6124 6.46207 13.3991C3.83095 14.2712 1.5764 16.1128 0.113387 18.6821C0.0597359 18.771 0.0241494 18.8698 0.00872733 18.9728C-0.00669474 19.0759 -0.00164002 19.181 0.0235932 19.282C0.0488265 19.383 0.0937273 19.4779 0.155646 19.561C0.217565 19.6441 0.295248 19.7137 0.384111 19.7659C0.472975 19.818 0.571219 19.8515 0.673047 19.8644C0.774875 19.8774 0.878224 19.8695 0.976997 19.8412C1.07577 19.8129 1.16797 19.7649 1.24815 19.6998C1.32832 19.6348 1.39486 19.5541 1.44383 19.4625C3.25363 16.2864 6.45246 14.3902 10 14.3902C13.5475 14.3902 16.7464 16.2864 18.5562 19.4625C18.6051 19.5541 18.6717 19.6348 18.7519 19.6998C18.832 19.7649 18.9242 19.8129 19.023 19.8412C19.1218 19.8695 19.2251 19.8774 19.327 19.8644C19.4288 19.8515 19.527 19.818 19.6159 19.7659C19.7048 19.7137 19.7824 19.6441 19.8444 19.561C19.9063 19.4779 19.9512 19.383 19.9764 19.282C20.0016 19.181 20.0067 19.0759 19.9913 18.9728C19.9758 18.8698 19.9403 18.771 19.8866 18.6821ZM4.62058 7.36695C4.62058 6.28656 4.93607 5.23044 5.52717 4.33214C6.11827 3.43383 6.95842 2.73369 7.94138 2.32024C8.92434 1.9068 10.006 1.79862 11.0495 2.0094C12.093 2.22017 13.0515 2.74042 13.8038 3.50437C14.5562 4.26831 15.0685 5.24164 15.2761 6.30126C15.4836 7.36089 15.3771 8.45922 14.9699 9.45736C14.5628 10.4555 13.8733 11.3086 12.9886 11.9089C12.104 12.5091 11.0639 12.8295 10 12.8295C8.57376 12.8279 7.20637 12.2519 6.19786 11.2278C5.18935 10.2037 4.6221 8.81522 4.62058 7.36695Z" fill="black"/>
</svg>
