<svg width="37" height="37" viewBox="0 0 37 37" fill="none" xmlns="http://www.w3.org/2000/svg">
<path d="M34.6875 8.09379V15.0313C34.6875 15.3379 34.5657 15.632 34.3488 15.8489C34.132 16.0657 33.8379 16.1875 33.5313 16.1875H26.5938C26.2871 16.1875 25.993 16.0657 25.7762 15.8489C25.5593 15.632 25.4375 15.3379 25.4375 15.0313C25.4375 14.7246 25.5593 14.4305 25.7762 14.2137C25.993 13.9969 26.2871 13.875 26.5938 13.875H30.5539L26.7108 10.3543L26.6747 10.3196C25.0676 8.71309 23.0228 7.61576 20.7957 7.16467C18.5686 6.71357 16.2579 6.9287 14.1523 7.7832C12.0468 8.63769 10.2397 10.0936 8.9568 11.9692C7.67391 13.8448 6.9721 16.0567 6.93904 18.3288C6.90598 20.6009 7.54314 22.8324 8.77093 24.7445C9.99871 26.6566 11.7627 28.1645 13.8425 29.0799C15.9223 29.9953 18.2257 30.2775 20.465 29.8914C22.7043 29.5053 24.7802 28.4679 26.4333 26.9089C26.6562 26.698 26.9537 26.5844 27.2604 26.5929C27.5671 26.6015 27.8579 26.7315 28.0687 26.9544C28.2795 27.1773 28.3932 27.4748 28.3846 27.7815C28.3761 28.0882 28.2461 28.3789 28.0232 28.5898C25.4526 31.0276 22.0427 32.383 18.5 32.375H18.3092C16.0368 32.3439 13.8068 31.7551 11.8153 30.6603C9.82374 29.5655 8.13159 27.9983 6.88758 26.0964C5.64356 24.1945 4.88577 22.0161 4.68079 19.7528C4.47582 17.4894 4.82994 15.2104 5.71203 13.1159C6.59413 11.0215 7.97719 9.17574 9.73966 7.74098C11.5021 6.30623 13.59 5.32636 15.8199 4.8875C18.0497 4.44864 20.3532 4.56423 22.528 5.22411C24.7027 5.88398 26.682 7.06794 28.292 8.67192L32.375 12.4008V8.09379C32.375 7.78714 32.4968 7.49304 32.7137 7.2762C32.9305 7.05936 33.2246 6.93754 33.5313 6.93754C33.8379 6.93754 34.132 7.05936 34.3488 7.2762C34.5657 7.49304 34.6875 7.78714 34.6875 8.09379Z" fill="white"/>
</svg>
