<svg width="16" height="14" viewBox="0 0 16 14" fill="none" xmlns="http://www.w3.org/2000/svg">
<path d="M14.5045 8.96395L10.9151 7.55661L10.9052 7.5526C10.7189 7.48287 10.5156 7.45488 10.3138 7.47118C10.112 7.48748 9.91802 7.54754 9.74941 7.64594C9.72956 7.65741 9.71048 7.66988 9.69227 7.68327L7.83778 9.06662C6.66291 8.56728 5.44995 7.51394 4.87928 6.49926L6.46253 4.85191C6.47777 4.83525 6.49224 4.81858 6.50596 4.80058C6.616 4.65344 6.68276 4.48479 6.70031 4.30962C6.71786 4.13445 6.68564 3.95821 6.60653 3.79657V3.78857L4.99357 0.642538C4.88899 0.431379 4.70916 0.255478 4.48094 0.141092C4.25272 0.0267066 3.98834 -0.0200278 3.72727 0.00786517C2.69486 0.126737 1.7472 0.570383 1.0613 1.25594C0.37539 1.9415 -0.00185977 2.82209 6.89425e-06 3.73323C6.89425e-06 9.02662 4.92195 13.3333 10.9715 13.3333C12.0128 13.335 13.0192 13.0049 13.8027 12.4047C14.5862 11.8045 15.0932 10.9753 15.2291 10.072C15.261 9.8436 15.2077 9.61233 15.0771 9.41264C14.9465 9.21296 14.7457 9.05557 14.5045 8.96395ZM10.9715 12.2667C8.38587 12.2642 5.90694 11.3643 4.07861 9.76454C2.25028 8.16475 1.22189 5.99568 1.21906 3.73323C1.2162 3.08222 1.48425 2.45255 1.97315 1.96182C2.46206 1.47109 3.13839 1.15285 3.87584 1.06654C3.87554 1.0692 3.87554 1.07188 3.87584 1.07454L5.47586 4.20791L3.90099 5.85725C3.885 5.87335 3.87048 5.89051 3.85756 5.90859C3.7429 6.06254 3.67564 6.23979 3.66229 6.42317C3.64894 6.60655 3.68996 6.78983 3.78137 6.95527C4.47166 8.19061 5.89414 9.42596 7.3212 10.0293C7.51165 10.1085 7.72234 10.1432 7.93267 10.1299C8.143 10.1165 8.34578 10.0557 8.52121 9.95329C8.54077 9.94176 8.55959 9.9293 8.57759 9.91596L10.4298 8.53328L14.0108 9.93663C14.0108 9.93663 14.0169 9.93663 14.0192 9.93663C13.9217 10.5828 13.5586 11.1758 12.9976 11.6046C12.4367 12.0335 11.7164 12.2688 10.9715 12.2667Z" fill="#00C714"/>
</svg>
