<svg width="17" height="16" viewBox="0 0 17 16" fill="none" xmlns="http://www.w3.org/2000/svg">
<path d="M16.9236 8.02639C16.9211 9.9883 16.2037 11.8816 14.9066 13.3496C13.6095 14.8176 11.8222 15.7591 9.88132 15.9966C9.8381 16.0015 9.79434 15.9972 9.75292 15.9839C9.71149 15.9706 9.67335 15.9486 9.64101 15.9194C9.60866 15.8902 9.58285 15.8545 9.56527 15.8146C9.54768 15.7747 9.53874 15.7315 9.53901 15.6878V9.87884H11.3852C11.4695 9.87903 11.553 9.86181 11.6305 9.82825C11.7079 9.79469 11.7777 9.74552 11.8354 9.68377C11.8931 9.62203 11.9375 9.54904 11.966 9.46933C11.9944 9.38963 12.0061 9.30491 12.0006 9.22045C11.987 9.06167 11.914 8.91394 11.7962 8.80697C11.6785 8.7 11.5248 8.64173 11.3659 8.64387H9.53901V6.79142C9.53901 6.46388 9.66868 6.14976 9.8995 5.91816C10.1303 5.68656 10.4434 5.55645 10.7698 5.55645H12.0006C12.0849 5.55663 12.1684 5.53941 12.2459 5.50585C12.3233 5.4723 12.3931 5.42312 12.4508 5.36137C12.5085 5.29963 12.5529 5.22664 12.5813 5.14693C12.6098 5.06723 12.6215 4.98252 12.6159 4.89805C12.6023 4.739 12.5291 4.59104 12.411 4.48404C12.293 4.37703 12.1389 4.31894 11.9798 4.32147H10.7698C10.1169 4.32147 9.49084 4.5817 9.02921 5.0449C8.56758 5.50811 8.30824 6.13635 8.30824 6.79142V8.64387H6.46208C6.37772 8.64369 6.29422 8.66091 6.21677 8.69447C6.13932 8.72802 6.06958 8.7772 6.01187 8.83895C5.95416 8.90069 5.90971 8.97368 5.8813 9.05338C5.85289 9.13309 5.84111 9.2178 5.8467 9.30227C5.86031 9.46132 5.93353 9.60928 6.0516 9.71628C6.16966 9.82329 6.32378 9.88138 6.48285 9.87884H8.30824V15.6894C8.3085 15.733 8.29958 15.7761 8.28204 15.8159C8.26451 15.8558 8.23876 15.8915 8.2065 15.9206C8.17424 15.9498 8.1362 15.9718 8.09487 15.9851C8.05354 15.9985 8.00986 16.0029 7.9667 15.9981C5.97389 15.7546 4.14482 14.7693 2.84152 13.2371C1.53821 11.7049 0.855675 9.73763 0.928995 7.72459C1.08284 3.55656 4.44746 0.168113 8.6044 0.00602264C9.68062 -0.0358073 10.7542 0.140597 11.7609 0.524683C12.7676 0.90877 13.6868 1.49265 14.4635 2.24139C15.2401 2.99014 15.8583 3.88837 16.281 4.88236C16.7037 5.87635 16.9223 6.94568 16.9236 8.02639Z" fill="#ABABAB"/>
</svg>
