<svg width="17" height="16" viewBox="0 0 17 16" fill="none" xmlns="http://www.w3.org/2000/svg">
<path d="M8.95697 4.44444C8.25375 4.44444 7.56632 4.65297 6.98161 5.04366C6.3969 5.43435 5.94118 5.98966 5.67207 6.63935C5.40295 7.28904 5.33254 8.00394 5.46973 8.69365C5.60693 9.38336 5.94556 10.0169 6.44281 10.5142C6.94007 11.0114 7.57361 11.35 8.26332 11.4872C8.95303 11.6244 9.66793 11.554 10.3176 11.2849C10.9673 11.0158 11.5226 10.5601 11.9133 9.97536C12.304 9.39065 12.5125 8.70322 12.5125 8C12.5115 7.05731 12.1366 6.15351 11.47 5.48693C10.8035 4.82034 9.89966 4.44543 8.95697 4.44444ZM8.95697 9.77778C8.60536 9.77778 8.26164 9.67351 7.96929 9.47817C7.67694 9.28282 7.44907 9.00517 7.31452 8.68033C7.17996 8.35548 7.14476 7.99803 7.21335 7.65317C7.28195 7.30832 7.45126 6.99155 7.69989 6.74292C7.94852 6.49429 8.26529 6.32498 8.61014 6.25638C8.955 6.18779 9.31245 6.22299 9.6373 6.35755C9.96214 6.4921 10.2398 6.71997 10.4351 7.01232C10.6305 7.30467 10.7347 7.64839 10.7347 8C10.7347 8.4715 10.5474 8.92368 10.214 9.25708C9.88065 9.59048 9.42847 9.77778 8.95697 9.77778ZM12.5125 0H5.40141C4.2231 0.00137231 3.09343 0.470066 2.26023 1.30326C1.42704 2.13646 0.958343 3.26613 0.95697 4.44444V11.5556C0.958343 12.7339 1.42704 13.8635 2.26023 14.6967C3.09343 15.5299 4.2231 15.9986 5.40141 16H12.5125C13.6908 15.9986 14.8205 15.5299 15.6537 14.6967C16.4869 13.8635 16.9556 12.7339 16.957 11.5556V4.44444C16.9556 3.26613 16.4869 2.13646 15.6537 1.30326C14.8205 0.470066 13.6908 0.00137231 12.5125 0ZM15.1792 11.5556C15.1792 12.2628 14.8982 12.9411 14.3981 13.4412C13.898 13.9413 13.2198 14.2222 12.5125 14.2222H5.40141C4.69417 14.2222 4.01589 13.9413 3.5158 13.4412C3.0157 12.9411 2.73475 12.2628 2.73475 11.5556V4.44444C2.73475 3.7372 3.0157 3.05892 3.5158 2.55883C4.01589 2.05873 4.69417 1.77778 5.40141 1.77778H12.5125C13.2198 1.77778 13.898 2.05873 14.3981 2.55883C14.8982 3.05892 15.1792 3.7372 15.1792 4.44444V11.5556ZM13.994 4.14815C13.994 4.38256 13.9245 4.6117 13.7943 4.8066C13.664 5.0015 13.4789 5.15341 13.2624 5.24312C13.0458 5.33282 12.8075 5.35629 12.5776 5.31056C12.3477 5.26483 12.1365 5.15195 11.9708 4.9862C11.805 4.82045 11.6921 4.60927 11.6464 4.37937C11.6007 4.14946 11.6242 3.91116 11.7139 3.6946C11.8036 3.47803 11.9555 3.29293 12.1504 3.1627C12.3453 3.03247 12.5744 2.96296 12.8088 2.96296C13.1232 2.96296 13.4246 3.08783 13.6469 3.3101C13.8691 3.53236 13.994 3.83382 13.994 4.14815Z" fill="#ABABAB"/>
</svg>
