<svg width="24" height="23" viewBox="0 0 24 23" fill="none" xmlns="http://www.w3.org/2000/svg">
<path d="M17.3571 0.364746C15.1446 0.364746 13.2075 1.40371 12 3.15989C10.7925 1.40371 8.85536 0.364746 6.64286 0.364746C4.88167 0.366914 3.19319 1.13187 1.94784 2.4918C0.702493 3.85173 0.00198508 5.69556 0 7.61879C0 15.8088 11.1204 22.4381 11.5939 22.7119C11.7187 22.7852 11.8583 22.8236 12 22.8236C12.1417 22.8236 12.2813 22.7852 12.4061 22.7119C12.8796 22.4381 24 15.8088 24 7.61879C23.998 5.69556 23.2975 3.85173 22.0522 2.4918C20.8068 1.13187 19.1183 0.366914 17.3571 0.364746ZM12 20.8165C10.0436 19.5716 1.71429 13.9005 1.71429 7.61879C1.71599 6.19195 2.23579 4.82409 3.15971 3.81517C4.08363 2.80624 5.33624 2.23861 6.64286 2.23676C8.72679 2.23676 10.4764 3.44888 11.2071 5.39577C11.2717 5.56745 11.3816 5.71428 11.5228 5.81762C11.6639 5.92095 11.83 5.97613 12 5.97613C12.17 5.97613 12.3361 5.92095 12.4773 5.81762C12.6184 5.71428 12.7283 5.56745 12.7929 5.39577C13.5236 3.44537 15.2732 2.23676 17.3571 2.23676C18.6638 2.23861 19.9164 2.80624 20.8403 3.81517C21.7642 4.82409 22.284 6.19195 22.2857 7.61879C22.2857 13.8912 13.9543 19.5704 12 20.8165Z" fill="black"/>
</svg>
