<svg width="18" height="11" viewBox="0 0 18 11" fill="none" xmlns="http://www.w3.org/2000/svg">
<path d="M16.5842 0.666748H0.891883C0.718472 0.666748 0.552164 0.719427 0.429544 0.813195C0.306924 0.906963 0.238037 1.03414 0.238037 1.16675V9.66675C0.238037 9.93196 0.375811 10.1863 0.621051 10.3739C0.866291 10.5614 1.19891 10.6667 1.54573 10.6667H15.9303C16.2772 10.6667 16.6098 10.5614 16.855 10.3739C17.1003 10.1863 17.238 9.93196 17.238 9.66675V1.16675C17.238 1.03414 17.1691 0.906963 17.0465 0.813195C16.9239 0.719427 16.7576 0.666748 16.5842 0.666748ZM14.903 1.66675L8.73804 5.98862L2.57309 1.66675H14.903ZM15.9303 9.66675H1.54573V2.30362L8.29587 7.0355C8.4165 7.12018 8.57429 7.16716 8.73804 7.16716C8.90178 7.16716 9.05957 7.12018 9.1802 7.0355L15.9303 2.30362V9.66675Z" fill="#00C714"/>
</svg>
