<svg width="143" height="23" viewBox="0 0 143 23" fill="none" xmlns="http://www.w3.org/2000/svg">
<path d="M83.7528 8.44976H74.586L71.7439 -0.00500488L68.9018 8.44976H59.735L67.1405 13.6673L64.3384 22.084L71.7439 16.8664L79.1494 22.084L76.3073 13.6293L83.7528 8.44976Z" fill="#FFCE31"/>
<path d="M142.997 8.44976H133.83L130.988 -0.00500488L128.146 8.44976H118.979L126.384 13.6673L123.582 22.084L130.988 16.8664L138.393 22.084L135.551 13.6293L142.997 8.44976Z" fill="#FFCE31"/>
<path d="M113.375 8.44976H104.208L101.366 -0.00500488L98.5236 8.44976H89.3569L96.7623 13.6673L93.9603 22.084L101.366 16.8664L108.771 22.084L105.929 13.6293L113.375 8.44976Z" fill="#FFCE31"/>
<path d="M24.5091 8.44976H15.3423L12.5002 -0.00500488L9.6581 8.44976H0.491333L7.8968 13.6673L5.09473 22.084L12.5002 16.8664L19.9057 22.084L17.0636 13.6293L24.5091 8.44976Z" fill="#FFCE31"/>
<path d="M54.1309 8.44976H44.9641L42.122 -0.00500488L39.2799 8.44976H30.1132L37.5186 13.6673L34.7166 22.084L42.122 16.8664L49.5275 22.084L46.6854 13.6293L54.1309 8.44976Z" fill="#FFCE31"/>
</svg>
