<svg width="29" height="24" viewBox="0 0 29 24" fill="none" xmlns="http://www.w3.org/2000/svg">
<path d="M14.5 0.388184C11.6322 0.388184 8.82875 1.07541 6.44424 2.36296C4.05972 3.65051 2.20122 5.48056 1.10375 7.62168C0.00628257 9.7628 -0.280866 12.1188 0.27862 14.3918C0.838106 16.6648 2.2191 18.7527 4.24696 20.3915C6.27482 22.0302 8.85847 23.1462 11.6712 23.5983C14.4839 24.0504 17.3994 23.8184 20.0489 22.9315C22.6984 22.0446 24.963 20.5428 26.5563 18.6158C28.1496 16.6888 29 14.4234 29 12.1058C28.9959 8.99912 27.467 6.0206 24.7486 3.82383C22.0302 1.62705 18.3444 0.391464 14.5 0.388184ZM14.5 22.0208C12.0734 22.0208 9.70125 21.4393 7.68358 20.3498C5.66592 19.2603 4.09334 17.7118 3.16471 15.9001C2.23609 14.0884 1.99311 12.0948 2.46652 10.1715C2.93994 8.24821 4.10847 6.48154 5.82435 5.09491C7.54023 3.70829 9.7264 2.76398 12.1064 2.38141C14.4864 1.99884 16.9533 2.19519 19.1952 2.94563C21.4371 3.69606 23.3533 4.96689 24.7015 6.59739C26.0497 8.22789 26.7692 10.1448 26.7692 12.1058C26.7655 14.7345 25.4717 17.2547 23.1716 19.1134C20.8715 20.9722 17.7529 22.0178 14.5 22.0208Z" fill="black"/>
</svg>
