<svg width="37" height="37" viewBox="0 0 37 37" fill="none" xmlns="http://www.w3.org/2000/svg">
<path d="M33.2624 8.50855C33.1539 8.37867 33.0181 8.27421 32.8648 8.20253C32.7115 8.13086 32.5443 8.09372 32.375 8.09375H9.05922L8.18047 3.26207C8.13207 2.99565 7.9917 2.75467 7.78383 2.58114C7.57596 2.40761 7.31379 2.31254 7.04301 2.3125H3.46875C3.16209 2.3125 2.868 2.43432 2.65116 2.65116C2.43432 2.868 2.3125 3.16209 2.3125 3.46875C2.3125 3.77541 2.43432 4.0695 2.65116 4.28634C2.868 4.50318 3.16209 4.625 3.46875 4.625H6.07031L9.76453 24.9013C9.87335 25.5026 10.1391 26.0645 10.5349 26.5302C9.98862 27.0404 9.59435 27.6919 9.39577 28.4125C9.1972 29.1332 9.20208 29.8947 9.40989 30.6127C9.6177 31.3307 10.0203 31.9771 10.5731 32.4803C11.1258 32.9835 11.8072 33.3237 12.5415 33.4633C13.2758 33.6029 14.0345 33.5364 14.7333 33.2711C15.4321 33.0059 16.0438 32.5523 16.5006 31.9606C16.9574 31.3689 17.2414 30.6623 17.321 29.9191C17.4007 29.1758 17.273 28.4251 16.9521 27.75H23.5167C23.258 28.2915 23.1242 28.8842 23.125 29.4844C23.125 30.2848 23.3623 31.0672 23.807 31.7327C24.2517 32.3982 24.8837 32.9169 25.6232 33.2232C26.3627 33.5295 27.1764 33.6096 27.9614 33.4535C28.7464 33.2973 29.4675 32.9119 30.0334 32.3459C30.5994 31.78 30.9848 31.0589 31.141 30.2739C31.2971 29.4889 31.217 28.6752 30.9107 27.9357C30.6044 27.1962 30.0857 26.5642 29.4202 26.1195C28.7547 25.6748 27.9723 25.4375 27.1719 25.4375H13.1769C12.9061 25.4375 12.644 25.3424 12.4361 25.1689C12.2282 24.9953 12.0879 24.7543 12.0395 24.4879L11.5813 21.9688H28.3469C29.1592 21.9686 29.9458 21.6834 30.5694 21.1628C31.193 20.6422 31.6141 19.9193 31.7593 19.12L33.5168 9.45668C33.5465 9.28966 33.5392 9.11814 33.4952 8.95428C33.4513 8.79043 33.3718 8.63825 33.2624 8.50855ZM15.0312 29.4844C15.0312 29.8274 14.9295 30.1627 14.739 30.4479C14.5484 30.7332 14.2775 30.9555 13.9606 31.0867C13.6437 31.218 13.2949 31.2523 12.9585 31.1854C12.6221 31.1185 12.313 30.9533 12.0705 30.7108C11.8279 30.4682 11.6627 30.1592 11.5958 29.8227C11.5289 29.4863 11.5632 29.1376 11.6945 28.8207C11.8258 28.5037 12.0481 28.2329 12.3333 28.0423C12.6185 27.8517 12.9538 27.75 13.2969 27.75C13.7569 27.75 14.198 27.9327 14.5233 28.258C14.8485 28.5832 15.0312 29.0244 15.0312 29.4844ZM28.9062 29.4844C28.9062 29.8274 28.8045 30.1627 28.614 30.4479C28.4234 30.7332 28.1525 30.9555 27.8356 31.0867C27.5187 31.218 27.1699 31.2523 26.8335 31.1854C26.4971 31.1185 26.188 30.9533 25.9455 30.7108C25.7029 30.4682 25.5377 30.1592 25.4708 29.8227C25.4039 29.4863 25.4382 29.1376 25.5695 28.8207C25.7008 28.5037 25.9231 28.2329 26.2083 28.0423C26.4935 27.8517 26.8288 27.75 27.1719 27.75C27.6319 27.75 28.073 27.9327 28.3983 28.258C28.7235 28.5832 28.9062 29.0244 28.9062 29.4844ZM29.4844 18.7067C29.4358 18.9738 29.2948 19.2154 29.0861 19.389C28.8773 19.5626 28.6141 19.6572 28.3426 19.6562H11.1607L9.4798 10.4062H30.9889L29.4844 18.7067Z" fill="white"/>
</svg>
