<svg width="24" height="23" viewBox="0 0 24 23" fill="none" xmlns="http://www.w3.org/2000/svg">
<path d="M23.9879 20.8157L22.4604 7.34046C22.4108 6.90141 22.2086 6.49692 21.8924 6.20438C21.5761 5.91185 21.1681 5.7518 20.7464 5.75486H17.1438C17.1438 4.32531 16.6021 2.95432 15.6378 1.94347C14.6735 0.932632 13.3656 0.364746 12.0019 0.364746C10.6382 0.364746 9.33029 0.932632 8.366 1.94347C7.4017 2.95432 6.85996 4.32531 6.85996 5.75486H3.25311C2.83137 5.7518 2.42335 5.91185 2.10713 6.20438C1.79091 6.49692 1.58868 6.90141 1.53913 7.34046L0.0115492 20.8157C-0.0164446 21.0672 0.00659021 21.3221 0.0791433 21.5636C0.151696 21.8052 0.272129 22.0279 0.432545 22.2172C0.594121 22.4073 0.792116 22.5595 1.01361 22.664C1.23511 22.7685 1.47514 22.8229 1.71803 22.8236H22.2772C22.5215 22.8241 22.7632 22.7704 22.9863 22.6659C23.2093 22.5613 23.4087 22.4084 23.5712 22.2172C23.7309 22.0275 23.8505 21.8046 23.9224 21.5631C23.9942 21.3216 24.0165 21.0669 23.9879 20.8157ZM12.0019 2.16145C12.911 2.16145 13.783 2.54004 14.4258 3.21394C15.0687 3.88783 15.4298 4.80183 15.4298 5.75486H8.57394C8.57394 4.80183 8.93509 3.88783 9.57796 3.21394C10.2208 2.54004 11.0927 2.16145 12.0019 2.16145ZM1.71803 21.0269L3.25311 7.55157H20.7592L22.2772 21.0269H1.71803Z" fill="black"/>
</svg>
