<svg width="32" height="35" viewBox="0 0 32 35" fill="none" xmlns="http://www.w3.org/2000/svg">
<path d="M16 16.8519C14.8793 16.8522 13.7962 17.2447 12.9486 17.9574C12.1011 18.6702 11.5456 19.6557 11.3838 20.7338C11.222 21.812 11.4647 22.9107 12.0674 23.8292C12.6702 24.7477 13.5928 25.4247 14.6667 25.7363V28.5185C14.6667 28.8623 14.8071 29.192 15.0572 29.4351C15.3072 29.6782 15.6464 29.8148 16 29.8148C16.3536 29.8148 16.6928 29.6782 16.9428 29.4351C17.1929 29.192 17.3333 28.8623 17.3333 28.5185V25.7363C18.4072 25.4247 19.3298 24.7477 19.9326 23.8292C20.5353 22.9107 20.778 21.812 20.6162 20.7338C20.4544 19.6557 19.899 18.6702 19.0514 17.9574C18.2038 17.2447 17.1207 16.8522 16 16.8519ZM16 23.3333C15.6044 23.3333 15.2178 23.2193 14.8889 23.0056C14.56 22.792 14.3036 22.4883 14.1522 22.133C14.0009 21.7777 13.9613 21.3867 14.0384 21.0095C14.1156 20.6324 14.3061 20.2859 14.5858 20.014C14.8655 19.742 15.2219 19.5568 15.6098 19.4818C15.9978 19.4068 16.3999 19.4453 16.7654 19.5925C17.1308 19.7396 17.4432 19.9889 17.6629 20.3086C17.8827 20.6284 18 21.0043 18 21.3889C18 21.9046 17.7893 22.3992 17.4142 22.7638C17.0391 23.1285 16.5304 23.3333 16 23.3333ZM29.3333 11.6667H24V7.77778C24 5.71498 23.1571 3.73667 21.6569 2.27806C20.1566 0.819442 18.1217 0 16 0C13.8783 0 11.8434 0.819442 10.3431 2.27806C8.84286 3.73667 8 5.71498 8 7.77778V11.6667H2.66667C1.95942 11.6667 1.28115 11.9398 0.781048 12.426C0.280951 12.9122 0 13.5717 0 14.2593V32.4074C0 33.095 0.280951 33.7544 0.781048 34.2406C1.28115 34.7269 1.95942 35 2.66667 35H29.3333C30.0406 35 30.7189 34.7269 31.219 34.2406C31.719 33.7544 32 33.095 32 32.4074V14.2593C32 13.5717 31.719 12.9122 31.219 12.426C30.7189 11.9398 30.0406 11.6667 29.3333 11.6667ZM10.6667 7.77778C10.6667 6.40258 11.2286 5.08371 12.2288 4.1113C13.229 3.13889 14.5855 2.59259 16 2.59259C17.4145 2.59259 18.771 3.13889 19.7712 4.1113C20.7714 5.08371 21.3333 6.40258 21.3333 7.77778V11.6667H10.6667V7.77778ZM29.3333 32.4074H2.66667V14.2593H29.3333V32.4074Z" fill="white"/>
</svg>
