<svg width="17" height="12" viewBox="0 0 17 12" fill="none" xmlns="http://www.w3.org/2000/svg">
<path d="M16.4867 2.01273C16.4194 1.76137 16.2905 1.5289 16.1105 1.33448C15.9306 1.14006 15.7048 0.989268 15.4517 0.894548C13.0032 -0.00817927 9.10601 2.59359e-06 8.89172 2.59359e-06C8.67744 2.59359e-06 4.7803 -0.00817927 2.33172 0.894548C2.0787 0.989268 1.85289 1.14006 1.67293 1.33448C1.49298 1.5289 1.36403 1.76137 1.29672 2.01273C1.11172 2.69318 0.891724 3.93682 0.891724 6C0.891724 8.06318 1.11172 9.30682 1.29672 9.98727C1.36393 10.2388 1.49283 10.4714 1.67279 10.6659C1.85276 10.8605 2.07862 11.0113 2.33172 11.1061C4.67744 11.97 8.34887 12 8.84458 12H8.93887C9.43458 12 13.1082 11.97 15.4517 11.1061C15.7048 11.0113 15.9307 10.8605 16.1107 10.6659C16.2906 10.4714 16.4195 10.2388 16.4867 9.98727C16.6717 9.30545 16.8917 8.06318 16.8917 6C16.8917 3.93682 16.6717 2.69318 16.4867 2.01273ZM11.2196 6.44455L8.36244 8.35364C8.27697 8.41079 8.17674 8.44451 8.07262 8.45114C7.9685 8.45777 7.86446 8.43706 7.7718 8.39125C7.67913 8.34545 7.60138 8.27629 7.54697 8.1913C7.49256 8.1063 7.46357 8.0087 7.46315 7.90909V4.09091C7.46318 3.99113 7.49189 3.89327 7.54614 3.80797C7.60039 3.72268 7.67811 3.65323 7.77085 3.60718C7.86358 3.56113 7.96778 3.54024 8.07208 3.54679C8.17639 3.55333 8.27682 3.58707 8.36244 3.64432L11.2196 5.55341C11.2947 5.60372 11.3561 5.67057 11.3985 5.74831C11.4408 5.82604 11.4629 5.91238 11.4629 6C11.4629 6.08762 11.4408 6.17396 11.3985 6.25169C11.3561 6.32943 11.2947 6.39628 11.2196 6.44659V6.44455Z" fill="#ABABAB"/>
</svg>
